<mxfile host="app.diagrams.net" modified="2023-07-19T14:14:44.883Z" agent="Mozilla/5.0 (Windows NT 10.0; Win64; x64) AppleWebKit/537.36 (KHTML, like Gecko) Chrome/114.0.0.0 Safari/537.36" etag="7dgtMoHL5UvyD8oZ5qMt" version="21.6.2" type="google">
  <diagram name="Page-1" id="TwK8OrMgM2Frbjs0nuJC">
    <mxGraphModel grid="1" page="1" gridSize="10" guides="1" tooltips="1" connect="1" arrows="1" fold="1" pageScale="1" pageWidth="827" pageHeight="1169" math="0" shadow="0">
      <root>
        <mxCell id="0" />
        <mxCell id="1" parent="0" />
        <mxCell id="8fDcizWEanZL42y9z_Tz-53" value="" style="endArrow=none;dashed=1;html=1;dashPattern=1 3;strokeWidth=3;rounded=0;exitX=1;exitY=0.5;exitDx=0;exitDy=0;" edge="1" parent="1">
          <mxGeometry width="50" height="50" relative="1" as="geometry">
            <mxPoint x="1445" y="818.75" as="sourcePoint" />
            <mxPoint x="2124" y="818.75" as="targetPoint" />
          </mxGeometry>
        </mxCell>
        <mxCell id="8fDcizWEanZL42y9z_Tz-55" value="" style="endArrow=none;dashed=1;html=1;dashPattern=1 3;strokeWidth=3;rounded=0;exitX=1;exitY=0.5;exitDx=0;exitDy=0;" edge="1" parent="1">
          <mxGeometry width="50" height="50" relative="1" as="geometry">
            <mxPoint x="1151" y="212.23000000000002" as="sourcePoint" />
            <mxPoint x="2124" y="212.23000000000002" as="targetPoint" />
          </mxGeometry>
        </mxCell>
        <mxCell id="8fDcizWEanZL42y9z_Tz-52" value="" style="endArrow=none;dashed=1;html=1;dashPattern=1 3;strokeWidth=3;rounded=0;exitX=1;exitY=0.5;exitDx=0;exitDy=0;" edge="1" parent="1">
          <mxGeometry width="50" height="50" relative="1" as="geometry">
            <mxPoint x="1100" y="445.23" as="sourcePoint" />
            <mxPoint x="2124" y="445.23" as="targetPoint" />
          </mxGeometry>
        </mxCell>
        <mxCell id="8fDcizWEanZL42y9z_Tz-49" value="" style="endArrow=none;dashed=1;html=1;dashPattern=1 3;strokeWidth=3;rounded=0;exitX=1;exitY=0.5;exitDx=0;exitDy=0;" edge="1" parent="1">
          <mxGeometry width="50" height="50" relative="1" as="geometry">
            <mxPoint x="275" y="1448" as="sourcePoint" />
            <mxPoint x="2124" y="1448" as="targetPoint" />
          </mxGeometry>
        </mxCell>
        <mxCell id="8fDcizWEanZL42y9z_Tz-47" value="" style="endArrow=none;dashed=1;html=1;dashPattern=1 3;strokeWidth=3;rounded=0;exitX=1;exitY=0.5;exitDx=0;exitDy=0;" edge="1" parent="1">
          <mxGeometry width="50" height="50" relative="1" as="geometry">
            <mxPoint x="170" y="160" as="sourcePoint" />
            <mxPoint x="2124" y="160" as="targetPoint" />
          </mxGeometry>
        </mxCell>
        <mxCell id="8fDcizWEanZL42y9z_Tz-45" value="" style="endArrow=none;dashed=1;html=1;dashPattern=1 3;strokeWidth=3;rounded=0;exitX=1;exitY=0.5;exitDx=0;exitDy=0;" edge="1" parent="1">
          <mxGeometry width="50" height="50" relative="1" as="geometry">
            <mxPoint x="240" y="678" as="sourcePoint" />
            <mxPoint x="2124" y="678" as="targetPoint" />
          </mxGeometry>
        </mxCell>
        <mxCell id="8fDcizWEanZL42y9z_Tz-44" value="" style="endArrow=none;dashed=1;html=1;dashPattern=1 3;strokeWidth=3;rounded=0;exitX=1;exitY=0.5;exitDx=0;exitDy=0;" edge="1" parent="1">
          <mxGeometry width="50" height="50" relative="1" as="geometry">
            <mxPoint x="275" y="846" as="sourcePoint" />
            <mxPoint x="2124" y="846" as="targetPoint" />
          </mxGeometry>
        </mxCell>
        <mxCell id="8fDcizWEanZL42y9z_Tz-43" value="" style="endArrow=none;dashed=1;html=1;dashPattern=1 3;strokeWidth=3;rounded=0;exitX=1;exitY=0.5;exitDx=0;exitDy=0;" edge="1" parent="1">
          <mxGeometry width="50" height="50" relative="1" as="geometry">
            <mxPoint x="226" y="958" as="sourcePoint" />
            <mxPoint x="2124" y="958" as="targetPoint" />
          </mxGeometry>
        </mxCell>
        <mxCell id="8fDcizWEanZL42y9z_Tz-42" value="" style="endArrow=none;dashed=1;html=1;dashPattern=1 3;strokeWidth=3;rounded=0;exitX=1;exitY=0.5;exitDx=0;exitDy=0;" edge="1" parent="1">
          <mxGeometry width="50" height="50" relative="1" as="geometry">
            <mxPoint x="266" y="1057" as="sourcePoint" />
            <mxPoint x="2124" y="1057" as="targetPoint" />
          </mxGeometry>
        </mxCell>
        <mxCell id="8fDcizWEanZL42y9z_Tz-48" value="" style="endArrow=none;dashed=1;html=1;dashPattern=1 3;strokeWidth=3;rounded=0;exitX=1;exitY=0.5;exitDx=0;exitDy=0;" edge="1" parent="1">
          <mxGeometry width="50" height="50" relative="1" as="geometry">
            <mxPoint x="180" y="78" as="sourcePoint" />
            <mxPoint x="2124" y="78" as="targetPoint" />
          </mxGeometry>
        </mxCell>
        <mxCell id="8fDcizWEanZL42y9z_Tz-46" value="" style="endArrow=none;dashed=1;html=1;dashPattern=1 3;strokeWidth=3;rounded=0;exitX=1;exitY=0.5;exitDx=0;exitDy=0;" edge="1" parent="1">
          <mxGeometry width="50" height="50" relative="1" as="geometry">
            <mxPoint x="185" y="578" as="sourcePoint" />
            <mxPoint x="2125" y="578" as="targetPoint" />
          </mxGeometry>
        </mxCell>
        <mxCell id="8fDcizWEanZL42y9z_Tz-40" value="" style="endArrow=none;dashed=1;html=1;dashPattern=1 3;strokeWidth=3;rounded=0;exitX=1;exitY=0.5;exitDx=0;exitDy=0;" edge="1" parent="1">
          <mxGeometry width="50" height="50" relative="1" as="geometry">
            <mxPoint x="255" y="1355" as="sourcePoint" />
            <mxPoint x="2124" y="1355" as="targetPoint" />
          </mxGeometry>
        </mxCell>
        <mxCell id="8fDcizWEanZL42y9z_Tz-22" value="" style="rounded=1;whiteSpace=wrap;html=1;fillColor=#f1c6c6;strokeColor=#f2c8c8;opacity=60;strokeWidth=3;" vertex="1" parent="1">
          <mxGeometry x="7.5" y="-90" width="304" height="1690" as="geometry" />
        </mxCell>
        <mxCell id="8fDcizWEanZL42y9z_Tz-23" value="" style="rounded=1;whiteSpace=wrap;html=1;fillColor=#92c2c3;strokeColor=#56999b;opacity=60;strokeWidth=3;" vertex="1" parent="1">
          <mxGeometry x="335" y="-90" width="304" height="1690" as="geometry" />
        </mxCell>
        <mxCell id="8fDcizWEanZL42y9z_Tz-24" value="" style="rounded=1;whiteSpace=wrap;html=1;fillColor=#cdcccc;strokeColor=#d2d2d2;opacity=60;strokeWidth=3;" vertex="1" parent="1">
          <mxGeometry x="660" y="-90" width="200" height="1690" as="geometry" />
        </mxCell>
        <mxCell id="8fDcizWEanZL42y9z_Tz-25" value="" style="rounded=1;whiteSpace=wrap;html=1;fillColor=#e58483;strokeColor=#e58483;opacity=60;strokeWidth=3;" vertex="1" parent="1">
          <mxGeometry x="881" y="-90" width="570" height="1690" as="geometry" />
        </mxCell>
        <mxCell id="8fDcizWEanZL42y9z_Tz-27" value="" style="rounded=1;whiteSpace=wrap;html=1;fillColor=#539698;strokeColor=#539698;opacity=60;strokeWidth=3;" vertex="1" parent="1">
          <mxGeometry x="1471" y="-90" width="302" height="1690" as="geometry" />
        </mxCell>
        <mxCell id="8fDcizWEanZL42y9z_Tz-28" value="" style="rounded=1;whiteSpace=wrap;html=1;fillColor=#539698;strokeColor=#539698;opacity=60;strokeWidth=3;" vertex="1" parent="1">
          <mxGeometry x="1794" y="-90" width="300" height="1690" as="geometry" />
        </mxCell>
        <mxCell id="8fDcizWEanZL42y9z_Tz-29" value="" style="rounded=1;whiteSpace=wrap;html=1;fillColor=#8b1835;strokeColor=#850f38;strokeWidth=3;opacity=50;" vertex="1" parent="1">
          <mxGeometry x="2150" y="-90" width="362" height="1690" as="geometry" />
        </mxCell>
        <mxCell id="57qSE1wlY5NEzLHZfADG-7" value="SOUR" style="triangle;whiteSpace=wrap;html=1;rotation=-90;fontFamily=Source Sans Pro;fontSource=https%3A%2F%2Ffonts.googleapis.com%2Fcss%3Ffamily%3DSource%2BSans%2BPro;strokeWidth=3;" vertex="1" parent="1">
          <mxGeometry x="2295.5" y="1476.75" width="60" height="116" as="geometry" />
        </mxCell>
        <mxCell id="cDKALuEOENlN5v6lt0b--70" style="edgeStyle=orthogonalEdgeStyle;rounded=0;orthogonalLoop=1;jettySize=auto;html=1;entryX=0;entryY=0.5;entryDx=0;entryDy=0;fontSize=15;fontFamily=Source Sans Pro;fontSource=https%3A%2F%2Ffonts.googleapis.com%2Fcss%3Ffamily%3DSource%2BSans%2BPro;strokeWidth=3;" edge="1" parent="1" source="cDKALuEOENlN5v6lt0b--1" target="cDKALuEOENlN5v6lt0b--50">
          <mxGeometry relative="1" as="geometry" />
        </mxCell>
        <mxCell id="cDKALuEOENlN5v6lt0b--1" value="Satellite data" style="text;html=1;strokeColor=none;fillColor=none;align=left;verticalAlign=middle;whiteSpace=wrap;rounded=0;fontSize=20;fontFamily=Source Sans Pro;fontSource=https%3A%2F%2Ffonts.googleapis.com%2Fcss%3Ffamily%3DSource%2BSans%2BPro;strokeWidth=3;fontStyle=1" vertex="1" parent="1">
          <mxGeometry x="85" y="430" width="130" height="30" as="geometry" />
        </mxCell>
        <mxCell id="cDKALuEOENlN5v6lt0b--6" value="National rainfall data" style="text;html=1;strokeColor=none;fillColor=none;align=left;verticalAlign=middle;whiteSpace=wrap;rounded=0;fontSize=22;fontFamily=Source Sans Pro;fontSource=https%3A%2F%2Ffonts.googleapis.com%2Fcss%3Ffamily%3DSource%2BSans%2BPro;strokeWidth=3;fontStyle=1" vertex="1" parent="1">
          <mxGeometry x="34" y="513" width="251" height="30" as="geometry" />
        </mxCell>
        <mxCell id="cDKALuEOENlN5v6lt0b--73" style="edgeStyle=orthogonalEdgeStyle;rounded=0;orthogonalLoop=1;jettySize=auto;html=1;entryX=0;entryY=0.5;entryDx=0;entryDy=0;fontSize=15;fontFamily=Source Sans Pro;fontSource=https%3A%2F%2Ffonts.googleapis.com%2Fcss%3Ffamily%3DSource%2BSans%2BPro;strokeWidth=3;" edge="1" parent="1" source="cDKALuEOENlN5v6lt0b--7" target="cDKALuEOENlN5v6lt0b--55">
          <mxGeometry relative="1" as="geometry" />
        </mxCell>
        <mxCell id="cDKALuEOENlN5v6lt0b--7" value="Met Office" style="text;html=1;strokeColor=none;fillColor=none;align=left;verticalAlign=middle;whiteSpace=wrap;rounded=0;fontSize=20;fontFamily=Source Sans Pro;fontSource=https%3A%2F%2Ffonts.googleapis.com%2Fcss%3Ffamily%3DSource%2BSans%2BPro;strokeWidth=3;fontStyle=1" vertex="1" parent="1">
          <mxGeometry x="84.5" y="563" width="100" height="30" as="geometry" />
        </mxCell>
        <mxCell id="cDKALuEOENlN5v6lt0b--74" style="edgeStyle=orthogonalEdgeStyle;rounded=0;orthogonalLoop=1;jettySize=auto;html=1;entryX=0;entryY=0.5;entryDx=0;entryDy=0;fontSize=15;fontFamily=Source Sans Pro;fontSource=https%3A%2F%2Ffonts.googleapis.com%2Fcss%3Ffamily%3DSource%2BSans%2BPro;strokeWidth=3;" edge="1" parent="1" source="cDKALuEOENlN5v6lt0b--8" target="cDKALuEOENlN5v6lt0b--57">
          <mxGeometry relative="1" as="geometry" />
        </mxCell>
        <mxCell id="cDKALuEOENlN5v6lt0b--8" value="Environment Agency" style="text;html=1;strokeColor=none;fillColor=none;align=left;verticalAlign=middle;whiteSpace=wrap;rounded=0;fontSize=20;fontFamily=Source Sans Pro;fontSource=https%3A%2F%2Ffonts.googleapis.com%2Fcss%3Ffamily%3DSource%2BSans%2BPro;strokeWidth=3;fontStyle=1" vertex="1" parent="1">
          <mxGeometry x="84.5" y="663" width="190" height="30" as="geometry" />
        </mxCell>
        <mxCell id="cDKALuEOENlN5v6lt0b--78" style="edgeStyle=orthogonalEdgeStyle;rounded=0;orthogonalLoop=1;jettySize=auto;html=1;entryX=0;entryY=0.5;entryDx=0;entryDy=0;fontSize=15;fontFamily=Source Sans Pro;fontSource=https%3A%2F%2Ffonts.googleapis.com%2Fcss%3Ffamily%3DSource%2BSans%2BPro;strokeWidth=3;" edge="1" parent="1" source="cDKALuEOENlN5v6lt0b--9" target="cDKALuEOENlN5v6lt0b--59">
          <mxGeometry relative="1" as="geometry">
            <Array as="points">
              <mxPoint x="320" y="1057" />
              <mxPoint x="320" y="1119" />
            </Array>
          </mxGeometry>
        </mxCell>
        <mxCell id="57qSE1wlY5NEzLHZfADG-25" style="edgeStyle=orthogonalEdgeStyle;rounded=0;orthogonalLoop=1;jettySize=auto;html=1;entryX=0;entryY=0.75;entryDx=0;entryDy=0;strokeWidth=3;" edge="1" parent="1" source="cDKALuEOENlN5v6lt0b--9" target="cDKALuEOENlN5v6lt0b--58">
          <mxGeometry relative="1" as="geometry">
            <Array as="points">
              <mxPoint x="320" y="1057" />
              <mxPoint x="320" y="968" />
            </Array>
          </mxGeometry>
        </mxCell>
        <mxCell id="cDKALuEOENlN5v6lt0b--9" value="Urban Observatory" style="text;html=1;strokeColor=none;fillColor=none;align=left;verticalAlign=middle;whiteSpace=wrap;rounded=0;fontSize=20;fontFamily=Source Sans Pro;fontSource=https%3A%2F%2Ffonts.googleapis.com%2Fcss%3Ffamily%3DSource%2BSans%2BPro;strokeWidth=3;fontStyle=1" vertex="1" parent="1">
          <mxGeometry x="86" y="1042" width="180" height="30" as="geometry" />
        </mxCell>
        <mxCell id="57qSE1wlY5NEzLHZfADG-27" style="edgeStyle=orthogonalEdgeStyle;rounded=0;orthogonalLoop=1;jettySize=auto;html=1;entryX=0;entryY=0.25;entryDx=0;entryDy=0;strokeWidth=3;" edge="1" parent="1" source="cDKALuEOENlN5v6lt0b--10" target="cDKALuEOENlN5v6lt0b--58">
          <mxGeometry relative="1" as="geometry">
            <Array as="points">
              <mxPoint x="320" y="846" />
              <mxPoint x="320" y="948" />
            </Array>
          </mxGeometry>
        </mxCell>
        <mxCell id="cDKALuEOENlN5v6lt0b--10" value="National Green Infrastructure Facility" style="text;html=1;strokeColor=none;fillColor=none;align=left;verticalAlign=middle;whiteSpace=wrap;rounded=0;fontSize=20;fontFamily=Source Sans Pro;fontSource=https%3A%2F%2Ffonts.googleapis.com%2Fcss%3Ffamily%3DSource%2BSans%2BPro;strokeWidth=3;fontStyle=1" vertex="1" parent="1">
          <mxGeometry x="85" y="831" width="190" height="30" as="geometry" />
        </mxCell>
        <mxCell id="57qSE1wlY5NEzLHZfADG-26" style="edgeStyle=orthogonalEdgeStyle;rounded=0;orthogonalLoop=1;jettySize=auto;html=1;entryX=0;entryY=0.5;entryDx=0;entryDy=0;strokeWidth=3;" edge="1" parent="1" source="cDKALuEOENlN5v6lt0b--11" target="cDKALuEOENlN5v6lt0b--58">
          <mxGeometry relative="1" as="geometry" />
        </mxCell>
        <mxCell id="cDKALuEOENlN5v6lt0b--11" value="Citizen Science" style="text;html=1;strokeColor=none;fillColor=none;align=left;verticalAlign=middle;whiteSpace=wrap;rounded=0;fontSize=20;fontFamily=Source Sans Pro;fontSource=https%3A%2F%2Ffonts.googleapis.com%2Fcss%3Ffamily%3DSource%2BSans%2BPro;strokeWidth=3;fontStyle=1" vertex="1" parent="1">
          <mxGeometry x="85" y="943" width="140" height="30" as="geometry" />
        </mxCell>
        <mxCell id="cDKALuEOENlN5v6lt0b--12" value="Local rainfall data" style="text;html=1;strokeColor=none;fillColor=none;align=left;verticalAlign=middle;whiteSpace=wrap;rounded=0;fontSize=22;fontFamily=Source Sans Pro;fontSource=https%3A%2F%2Ffonts.googleapis.com%2Fcss%3Ffamily%3DSource%2BSans%2BPro;strokeWidth=3;fontStyle=1" vertex="1" parent="1">
          <mxGeometry x="31.5" y="767.5" width="221" height="30" as="geometry" />
        </mxCell>
        <mxCell id="cDKALuEOENlN5v6lt0b--13" value="" style="shape=cylinder3;whiteSpace=wrap;html=1;boundedLbl=1;backgroundOutline=1;size=6.75;fontSize=15;fontFamily=Source Sans Pro;fontSource=https%3A%2F%2Ffonts.googleapis.com%2Fcss%3Ffamily%3DSource%2BSans%2BPro;strokeWidth=3;" vertex="1" parent="1">
          <mxGeometry x="45" y="427.5" width="30" height="30" as="geometry" />
        </mxCell>
        <mxCell id="cDKALuEOENlN5v6lt0b--17" value="" style="shape=cylinder3;whiteSpace=wrap;html=1;boundedLbl=1;backgroundOutline=1;size=6.75;fontSize=15;fontFamily=Source Sans Pro;fontSource=https%3A%2F%2Ffonts.googleapis.com%2Fcss%3Ffamily%3DSource%2BSans%2BPro;strokeWidth=3;" vertex="1" parent="1">
          <mxGeometry x="43.5" y="563" width="30" height="30" as="geometry" />
        </mxCell>
        <mxCell id="cDKALuEOENlN5v6lt0b--18" value="" style="shape=cylinder3;whiteSpace=wrap;html=1;boundedLbl=1;backgroundOutline=1;size=6.75;fontSize=15;fontFamily=Source Sans Pro;fontSource=https%3A%2F%2Ffonts.googleapis.com%2Fcss%3Ffamily%3DSource%2BSans%2BPro;strokeWidth=3;" vertex="1" parent="1">
          <mxGeometry x="43.5" y="663" width="30" height="30" as="geometry" />
        </mxCell>
        <mxCell id="cDKALuEOENlN5v6lt0b--19" value="" style="shape=cylinder3;whiteSpace=wrap;html=1;boundedLbl=1;backgroundOutline=1;size=6.75;fontSize=15;fontFamily=Source Sans Pro;fontSource=https%3A%2F%2Ffonts.googleapis.com%2Fcss%3Ffamily%3DSource%2BSans%2BPro;strokeWidth=3;" vertex="1" parent="1">
          <mxGeometry x="45" y="1042" width="30" height="30" as="geometry" />
        </mxCell>
        <mxCell id="cDKALuEOENlN5v6lt0b--20" value="" style="shape=cylinder3;whiteSpace=wrap;html=1;boundedLbl=1;backgroundOutline=1;size=6.75;fontSize=15;fontFamily=Source Sans Pro;fontSource=https%3A%2F%2Ffonts.googleapis.com%2Fcss%3Ffamily%3DSource%2BSans%2BPro;strokeWidth=3;" vertex="1" parent="1">
          <mxGeometry x="45" y="831" width="30" height="30" as="geometry" />
        </mxCell>
        <mxCell id="cDKALuEOENlN5v6lt0b--21" value="" style="shape=cylinder3;whiteSpace=wrap;html=1;boundedLbl=1;backgroundOutline=1;size=6.75;fontSize=15;fontFamily=Source Sans Pro;fontSource=https%3A%2F%2Ffonts.googleapis.com%2Fcss%3Ffamily%3DSource%2BSans%2BPro;strokeWidth=3;" vertex="1" parent="1">
          <mxGeometry x="44" y="943" width="30" height="30" as="geometry" />
        </mxCell>
        <mxCell id="cDKALuEOENlN5v6lt0b--22" value="Additional data&amp;nbsp;" style="text;html=1;strokeColor=none;fillColor=none;align=left;verticalAlign=middle;whiteSpace=wrap;rounded=0;fontSize=22;fontFamily=Source Sans Pro;fontSource=https%3A%2F%2Ffonts.googleapis.com%2Fcss%3Ffamily%3DSource%2BSans%2BPro;strokeWidth=3;fontStyle=1" vertex="1" parent="1">
          <mxGeometry x="34" y="10" width="171" height="30" as="geometry" />
        </mxCell>
        <mxCell id="cDKALuEOENlN5v6lt0b--149" style="edgeStyle=orthogonalEdgeStyle;rounded=0;orthogonalLoop=1;jettySize=auto;html=1;fontSize=15;fontFamily=Source Sans Pro;fontSource=https%3A%2F%2Ffonts.googleapis.com%2Fcss%3Ffamily%3DSource%2BSans%2BPro;strokeWidth=3;" edge="1" parent="1" source="cDKALuEOENlN5v6lt0b--24" target="cDKALuEOENlN5v6lt0b--143">
          <mxGeometry relative="1" as="geometry" />
        </mxCell>
        <mxCell id="cDKALuEOENlN5v6lt0b--24" value="Trash screen" style="text;html=1;strokeColor=none;fillColor=none;align=left;verticalAlign=middle;whiteSpace=wrap;rounded=0;fontSize=20;fontFamily=Source Sans Pro;fontSource=https%3A%2F%2Ffonts.googleapis.com%2Fcss%3Ffamily%3DSource%2BSans%2BPro;strokeWidth=3;fontStyle=1" vertex="1" parent="1">
          <mxGeometry x="86" y="63" width="129" height="30" as="geometry" />
        </mxCell>
        <mxCell id="cDKALuEOENlN5v6lt0b--148" style="edgeStyle=orthogonalEdgeStyle;rounded=0;orthogonalLoop=1;jettySize=auto;html=1;entryX=0;entryY=0.5;entryDx=0;entryDy=0;fontSize=15;fontFamily=Source Sans Pro;fontSource=https%3A%2F%2Ffonts.googleapis.com%2Fcss%3Ffamily%3DSource%2BSans%2BPro;strokeWidth=3;" edge="1" parent="1" source="cDKALuEOENlN5v6lt0b--25" target="cDKALuEOENlN5v6lt0b--144">
          <mxGeometry relative="1" as="geometry" />
        </mxCell>
        <mxCell id="cDKALuEOENlN5v6lt0b--25" value="Soil moisture data" style="text;html=1;strokeColor=none;fillColor=none;align=left;verticalAlign=middle;whiteSpace=wrap;rounded=0;fontSize=20;fontFamily=Source Sans Pro;fontSource=https%3A%2F%2Ffonts.googleapis.com%2Fcss%3Ffamily%3DSource%2BSans%2BPro;strokeWidth=3;fontStyle=1" vertex="1" parent="1">
          <mxGeometry x="82.75" y="1340" width="169" height="30" as="geometry" />
        </mxCell>
        <mxCell id="cDKALuEOENlN5v6lt0b--147" style="edgeStyle=orthogonalEdgeStyle;rounded=0;orthogonalLoop=1;jettySize=auto;html=1;entryX=0;entryY=0.5;entryDx=0;entryDy=0;fontSize=15;fontFamily=Source Sans Pro;fontSource=https%3A%2F%2Ffonts.googleapis.com%2Fcss%3Ffamily%3DSource%2BSans%2BPro;strokeWidth=3;" edge="1" parent="1" source="cDKALuEOENlN5v6lt0b--26" target="cDKALuEOENlN5v6lt0b--60">
          <mxGeometry relative="1" as="geometry" />
        </mxCell>
        <mxCell id="cDKALuEOENlN5v6lt0b--26" value="Wind speed" style="text;html=1;strokeColor=none;fillColor=none;align=left;verticalAlign=middle;whiteSpace=wrap;rounded=0;fontSize=20;fontFamily=Source Sans Pro;fontSource=https%3A%2F%2Ffonts.googleapis.com%2Fcss%3Ffamily%3DSource%2BSans%2BPro;strokeWidth=3;fontStyle=1" vertex="1" parent="1">
          <mxGeometry x="86" y="145" width="119" height="30" as="geometry" />
        </mxCell>
        <mxCell id="cDKALuEOENlN5v6lt0b--146" style="edgeStyle=orthogonalEdgeStyle;rounded=0;orthogonalLoop=1;jettySize=auto;html=1;entryX=0;entryY=0.5;entryDx=0;entryDy=0;fontSize=15;fontFamily=Source Sans Pro;fontSource=https%3A%2F%2Ffonts.googleapis.com%2Fcss%3Ffamily%3DSource%2BSans%2BPro;strokeWidth=3;" edge="1" parent="1" source="cDKALuEOENlN5v6lt0b--27" target="cDKALuEOENlN5v6lt0b--145">
          <mxGeometry relative="1" as="geometry" />
        </mxCell>
        <mxCell id="cDKALuEOENlN5v6lt0b--27" value="Temperature sensors" style="text;html=1;strokeColor=none;fillColor=none;align=left;verticalAlign=middle;whiteSpace=wrap;rounded=0;fontSize=20;fontFamily=Source Sans Pro;fontSource=https%3A%2F%2Ffonts.googleapis.com%2Fcss%3Ffamily%3DSource%2BSans%2BPro;strokeWidth=3;fontStyle=1" vertex="1" parent="1">
          <mxGeometry x="84.75" y="1433" width="190" height="30" as="geometry" />
        </mxCell>
        <mxCell id="cDKALuEOENlN5v6lt0b--30" value="" style="shape=cylinder3;whiteSpace=wrap;html=1;boundedLbl=1;backgroundOutline=1;size=6.75;fontSize=15;fontFamily=Source Sans Pro;fontSource=https%3A%2F%2Ffonts.googleapis.com%2Fcss%3Ffamily%3DSource%2BSans%2BPro;strokeWidth=3;" vertex="1" parent="1">
          <mxGeometry x="46" y="63" width="30" height="30" as="geometry" />
        </mxCell>
        <mxCell id="cDKALuEOENlN5v6lt0b--31" value="" style="shape=cylinder3;whiteSpace=wrap;html=1;boundedLbl=1;backgroundOutline=1;size=6.75;fontSize=15;fontFamily=Source Sans Pro;fontSource=https%3A%2F%2Ffonts.googleapis.com%2Fcss%3Ffamily%3DSource%2BSans%2BPro;strokeWidth=3;" vertex="1" parent="1">
          <mxGeometry x="42.75" y="1340" width="30" height="30" as="geometry" />
        </mxCell>
        <mxCell id="cDKALuEOENlN5v6lt0b--32" value="" style="shape=cylinder3;whiteSpace=wrap;html=1;boundedLbl=1;backgroundOutline=1;size=6.75;fontSize=15;fontFamily=Source Sans Pro;fontSource=https%3A%2F%2Ffonts.googleapis.com%2Fcss%3Ffamily%3DSource%2BSans%2BPro;strokeWidth=3;" vertex="1" parent="1">
          <mxGeometry x="45" y="145" width="30" height="30" as="geometry" />
        </mxCell>
        <mxCell id="cDKALuEOENlN5v6lt0b--33" value="" style="shape=cylinder3;whiteSpace=wrap;html=1;boundedLbl=1;backgroundOutline=1;size=6.75;fontSize=15;fontFamily=Source Sans Pro;fontSource=https%3A%2F%2Ffonts.googleapis.com%2Fcss%3Ffamily%3DSource%2BSans%2BPro;strokeWidth=3;" vertex="1" parent="1">
          <mxGeometry x="43.75" y="1433" width="30" height="30" as="geometry" />
        </mxCell>
        <mxCell id="cDKALuEOENlN5v6lt0b--35" value="High-resolution images" style="text;html=1;strokeColor=none;fillColor=none;align=left;verticalAlign=middle;whiteSpace=wrap;rounded=0;fontSize=16;fontFamily=Source Sans Pro;fontSource=https%3A%2F%2Ffonts.googleapis.com%2Fcss%3Ffamily%3DSource%2BSans%2BPro;strokeWidth=3;" vertex="1" parent="1">
          <mxGeometry x="95" y="458.5" width="170" height="21.5" as="geometry" />
        </mxCell>
        <mxCell id="cDKALuEOENlN5v6lt0b--38" value="C-band composite, processed weather radar data (1km, 5min)&amp;nbsp;" style="text;html=1;strokeColor=none;fillColor=none;align=left;verticalAlign=middle;whiteSpace=wrap;rounded=0;fontSize=16;fontFamily=Source Sans Pro;fontSource=https%3A%2F%2Ffonts.googleapis.com%2Fcss%3Ffamily%3DSource%2BSans%2BPro;strokeWidth=3;" vertex="1" parent="1">
          <mxGeometry x="64.5" y="593" width="230.5" height="40" as="geometry" />
        </mxCell>
        <mxCell id="cDKALuEOENlN5v6lt0b--39" value="Tipping bucket rain gauges (13 sensors, 15min)" style="text;html=1;strokeColor=none;fillColor=none;align=left;verticalAlign=middle;whiteSpace=wrap;rounded=0;fontSize=16;fontFamily=Source Sans Pro;fontSource=https%3A%2F%2Ffonts.googleapis.com%2Fcss%3Ffamily%3DSource%2BSans%2BPro;strokeWidth=3;" vertex="1" parent="1">
          <mxGeometry x="94.5" y="693" width="190.5" height="41" as="geometry" />
        </mxCell>
        <mxCell id="cDKALuEOENlN5v6lt0b--40" value="Tipping bucket rain gauges (11 sensors, 1-60min)&lt;br style=&quot;font-size: 16px;&quot;&gt;High-resolution X-band weather radar (250m, 1min)" style="text;html=1;strokeColor=none;fillColor=none;align=left;verticalAlign=middle;whiteSpace=wrap;rounded=0;fontSize=16;fontFamily=Source Sans Pro;fontSource=https%3A%2F%2Ffonts.googleapis.com%2Fcss%3Ffamily%3DSource%2BSans%2BPro;strokeWidth=3;" vertex="1" parent="1">
          <mxGeometry x="96" y="1070.5" width="199" height="80" as="geometry" />
        </mxCell>
        <mxCell id="cDKALuEOENlN5v6lt0b--41" value="Tipping bucket rain gauges (1 sensor, 1min)" style="text;html=1;strokeColor=none;fillColor=none;align=left;verticalAlign=middle;whiteSpace=wrap;rounded=0;fontSize=16;fontFamily=Source Sans Pro;fontSource=https%3A%2F%2Ffonts.googleapis.com%2Fcss%3Ffamily%3DSource%2BSans%2BPro;strokeWidth=3;" vertex="1" parent="1">
          <mxGeometry x="94.5" y="873.75" width="190.5" height="36.25" as="geometry" />
        </mxCell>
        <mxCell id="cDKALuEOENlN5v6lt0b--42" value="Tipping bucket rain gauges (1 sensor, 5min)" style="text;html=1;strokeColor=none;fillColor=none;align=left;verticalAlign=middle;whiteSpace=wrap;rounded=0;fontSize=16;fontFamily=Source Sans Pro;fontSource=https%3A%2F%2Ffonts.googleapis.com%2Fcss%3Ffamily%3DSource%2BSans%2BPro;strokeWidth=3;" vertex="1" parent="1">
          <mxGeometry x="95" y="973" width="190" height="37" as="geometry" />
        </mxCell>
        <mxCell id="cDKALuEOENlN5v6lt0b--43" value="Image feed (1 feed, 1hr)" style="text;html=1;strokeColor=none;fillColor=none;align=left;verticalAlign=middle;whiteSpace=wrap;rounded=0;fontSize=16;fontFamily=Source Sans Pro;fontSource=https%3A%2F%2Ffonts.googleapis.com%2Fcss%3Ffamily%3DSource%2BSans%2BPro;strokeWidth=3;" vertex="1" parent="1">
          <mxGeometry x="100" y="94" width="235" height="20" as="geometry" />
        </mxCell>
        <mxCell id="cDKALuEOENlN5v6lt0b--45" value="Mask, long rainfall record, temperature, ..." style="text;html=1;strokeColor=none;fillColor=none;align=left;verticalAlign=middle;whiteSpace=wrap;rounded=0;fontSize=16;fontFamily=Source Sans Pro;fontSource=https%3A%2F%2Ffonts.googleapis.com%2Fcss%3Ffamily%3DSource%2BSans%2BPro;strokeWidth=3;" vertex="1" parent="1">
          <mxGeometry x="90" y="1274" width="225" height="31" as="geometry" />
        </mxCell>
        <mxCell id="cDKALuEOENlN5v6lt0b--46" value="Urban Observatory, Environment Agency" style="text;html=1;strokeColor=none;fillColor=none;align=left;verticalAlign=middle;whiteSpace=wrap;rounded=0;fontSize=16;fontFamily=Source Sans Pro;fontSource=https%3A%2F%2Ffonts.googleapis.com%2Fcss%3Ffamily%3DSource%2BSans%2BPro;strokeWidth=3;" vertex="1" parent="1">
          <mxGeometry x="95" y="176" width="200" height="40" as="geometry" />
        </mxCell>
        <mxCell id="ADk5-yCTH1KVGuNaoSkB-30" style="edgeStyle=orthogonalEdgeStyle;rounded=0;orthogonalLoop=1;jettySize=auto;html=1;entryX=0;entryY=0.5;entryDx=0;entryDy=0;fontFamily=Source Sans Pro;fontSource=https%3A%2F%2Ffonts.googleapis.com%2Fcss%3Ffamily%3DSource%2BSans%2BPro;strokeWidth=3;" edge="1" parent="1" source="cDKALuEOENlN5v6lt0b--50" target="cDKALuEOENlN5v6lt0b--68">
          <mxGeometry relative="1" as="geometry" />
        </mxCell>
        <mxCell id="cDKALuEOENlN5v6lt0b--50" value="Prepare and upload" style="rounded=0;whiteSpace=wrap;html=1;fontSize=20;fontFamily=Source Sans Pro;fontSource=https%3A%2F%2Ffonts.googleapis.com%2Fcss%3Ffamily%3DSource%2BSans%2BPro;strokeWidth=3;" vertex="1" parent="1">
          <mxGeometry x="375" y="425" width="230" height="40" as="geometry" />
        </mxCell>
        <mxCell id="8fDcizWEanZL42y9z_Tz-2" style="edgeStyle=orthogonalEdgeStyle;rounded=0;orthogonalLoop=1;jettySize=auto;html=1;entryX=0;entryY=0.25;entryDx=0;entryDy=0;strokeWidth=3;" edge="1" parent="1" source="cDKALuEOENlN5v6lt0b--55" target="cDKALuEOENlN5v6lt0b--98">
          <mxGeometry relative="1" as="geometry">
            <Array as="points">
              <mxPoint x="880" y="577" />
              <mxPoint x="880" y="748" />
            </Array>
          </mxGeometry>
        </mxCell>
        <mxCell id="cDKALuEOENlN5v6lt0b--55" value="Download, clip and save" style="rounded=0;whiteSpace=wrap;html=1;fontSize=20;fontFamily=Source Sans Pro;fontSource=https%3A%2F%2Ffonts.googleapis.com%2Fcss%3Ffamily%3DSource%2BSans%2BPro;strokeWidth=3;" vertex="1" parent="1">
          <mxGeometry x="374.5" y="558" width="230.5" height="40" as="geometry" />
        </mxCell>
        <mxCell id="cDKALuEOENlN5v6lt0b--122" style="edgeStyle=orthogonalEdgeStyle;rounded=0;orthogonalLoop=1;jettySize=auto;html=1;entryX=0;entryY=0.25;entryDx=0;entryDy=0;fontSize=15;fontFamily=Source Sans Pro;fontSource=https%3A%2F%2Ffonts.googleapis.com%2Fcss%3Ffamily%3DSource%2BSans%2BPro;strokeWidth=3;" edge="1" parent="1" source="cDKALuEOENlN5v6lt0b--57" target="cDKALuEOENlN5v6lt0b--121">
          <mxGeometry relative="1" as="geometry" />
        </mxCell>
        <mxCell id="cDKALuEOENlN5v6lt0b--57" value="Download from API" style="rounded=0;whiteSpace=wrap;html=1;fontSize=20;fontFamily=Source Sans Pro;fontSource=https%3A%2F%2Ffonts.googleapis.com%2Fcss%3Ffamily%3DSource%2BSans%2BPro;strokeWidth=3;" vertex="1" parent="1">
          <mxGeometry x="374.5" y="659" width="230.5" height="38" as="geometry" />
        </mxCell>
        <mxCell id="cDKALuEOENlN5v6lt0b--123" style="edgeStyle=orthogonalEdgeStyle;rounded=0;orthogonalLoop=1;jettySize=auto;html=1;entryX=0;entryY=0.75;entryDx=0;entryDy=0;fontSize=15;fontFamily=Source Sans Pro;fontSource=https%3A%2F%2Ffonts.googleapis.com%2Fcss%3Ffamily%3DSource%2BSans%2BPro;strokeWidth=3;" edge="1" parent="1" source="cDKALuEOENlN5v6lt0b--58" target="cDKALuEOENlN5v6lt0b--121">
          <mxGeometry relative="1" as="geometry" />
        </mxCell>
        <mxCell id="cDKALuEOENlN5v6lt0b--58" value="Data scraping/API" style="rounded=0;whiteSpace=wrap;html=1;fontSize=20;fontFamily=Source Sans Pro;fontSource=https%3A%2F%2Ffonts.googleapis.com%2Fcss%3Ffamily%3DSource%2BSans%2BPro;strokeWidth=3;" vertex="1" parent="1">
          <mxGeometry x="375" y="938" width="230" height="40" as="geometry" />
        </mxCell>
        <mxCell id="8fDcizWEanZL42y9z_Tz-1" style="edgeStyle=orthogonalEdgeStyle;rounded=0;orthogonalLoop=1;jettySize=auto;html=1;entryX=0;entryY=0.75;entryDx=0;entryDy=0;strokeWidth=3;" edge="1" parent="1" source="cDKALuEOENlN5v6lt0b--59" target="cDKALuEOENlN5v6lt0b--98">
          <mxGeometry relative="1" as="geometry">
            <Array as="points">
              <mxPoint x="880" y="1119" />
              <mxPoint x="880" y="888" />
            </Array>
          </mxGeometry>
        </mxCell>
        <mxCell id="cDKALuEOENlN5v6lt0b--59" value="Data scraping/API" style="rounded=0;whiteSpace=wrap;html=1;fontSize=20;fontFamily=Source Sans Pro;fontSource=https%3A%2F%2Ffonts.googleapis.com%2Fcss%3Ffamily%3DSource%2BSans%2BPro;strokeWidth=3;" vertex="1" parent="1">
          <mxGeometry x="375" y="1098.5" width="229" height="41" as="geometry" />
        </mxCell>
        <mxCell id="cDKALuEOENlN5v6lt0b--156" style="edgeStyle=orthogonalEdgeStyle;rounded=0;orthogonalLoop=1;jettySize=auto;html=1;entryX=0;entryY=0.25;entryDx=0;entryDy=0;fontFamily=Source Sans Pro;fontSource=https%3A%2F%2Ffonts.googleapis.com%2Fcss%3Ffamily%3DSource%2BSans%2BPro;strokeWidth=3;" edge="1" parent="1" source="cDKALuEOENlN5v6lt0b--60" target="cDKALuEOENlN5v6lt0b--154">
          <mxGeometry relative="1" as="geometry" />
        </mxCell>
        <mxCell id="cDKALuEOENlN5v6lt0b--60" value="Data scraping/API" style="rounded=0;whiteSpace=wrap;html=1;fontSize=20;fontFamily=Source Sans Pro;fontSource=https%3A%2F%2Ffonts.googleapis.com%2Fcss%3Ffamily%3DSource%2BSans%2BPro;strokeWidth=3;" vertex="1" parent="1">
          <mxGeometry x="375" y="140" width="230" height="39" as="geometry" />
        </mxCell>
        <mxCell id="cDKALuEOENlN5v6lt0b--65" value="read_uo_radar.py" style="text;html=1;strokeColor=none;fillColor=none;align=left;verticalAlign=middle;whiteSpace=wrap;rounded=0;fontSize=16;fontFamily=Source Sans Pro;fontSource=https%3A%2F%2Ffonts.googleapis.com%2Fcss%3Ffamily%3DSource%2BSans%2BPro;strokeWidth=3;" vertex="1" parent="1">
          <mxGeometry x="384" y="1139.5" width="110" height="30" as="geometry" />
        </mxCell>
        <mxCell id="57qSE1wlY5NEzLHZfADG-38" style="edgeStyle=orthogonalEdgeStyle;rounded=0;orthogonalLoop=1;jettySize=auto;html=1;entryX=0;entryY=0.75;entryDx=0;entryDy=0;strokeWidth=3;" edge="1" parent="1" source="cDKALuEOENlN5v6lt0b--68" target="cDKALuEOENlN5v6lt0b--69">
          <mxGeometry relative="1" as="geometry">
            <mxPoint x="1232" y="445" as="targetPoint" />
          </mxGeometry>
        </mxCell>
        <mxCell id="cDKALuEOENlN5v6lt0b--68" value="Machine learning floating object detection" style="rounded=0;whiteSpace=wrap;html=1;fontSize=20;fontFamily=Source Sans Pro;fontSource=https%3A%2F%2Ffonts.googleapis.com%2Fcss%3Ffamily%3DSource%2BSans%2BPro;strokeWidth=3;" vertex="1" parent="1">
          <mxGeometry x="900" y="396" width="200" height="98" as="geometry" />
        </mxCell>
        <mxCell id="8fDcizWEanZL42y9z_Tz-13" style="edgeStyle=orthogonalEdgeStyle;rounded=0;orthogonalLoop=1;jettySize=auto;html=1;strokeWidth=3;" edge="1" parent="1" source="cDKALuEOENlN5v6lt0b--69" target="8fDcizWEanZL42y9z_Tz-12">
          <mxGeometry relative="1" as="geometry" />
        </mxCell>
        <mxCell id="cDKALuEOENlN5v6lt0b--69" value="Debris object identification" style="rounded=0;whiteSpace=wrap;html=1;fontSize=20;fontFamily=Source Sans Pro;fontSource=https%3A%2F%2Ffonts.googleapis.com%2Fcss%3Ffamily%3DSource%2BSans%2BPro;strokeWidth=3;" vertex="1" parent="1">
          <mxGeometry x="1234" y="324" width="200" height="80" as="geometry" />
        </mxCell>
        <mxCell id="8fDcizWEanZL42y9z_Tz-51" style="edgeStyle=orthogonalEdgeStyle;rounded=0;orthogonalLoop=1;jettySize=auto;html=1;entryX=0;entryY=0.5;entryDx=0;entryDy=0;exitX=1;exitY=0.25;exitDx=0;exitDy=0;strokeWidth=3;" edge="1" parent="1" source="cDKALuEOENlN5v6lt0b--94" target="57qSE1wlY5NEzLHZfADG-35">
          <mxGeometry relative="1" as="geometry" />
        </mxCell>
        <mxCell id="cDKALuEOENlN5v6lt0b--94" value="SHETRAN &lt;br style=&quot;font-size: 30px;&quot;&gt;hotstart" style="rounded=0;whiteSpace=wrap;html=1;fontSize=30;fontFamily=Source Sans Pro;fontSource=https%3A%2F%2Ffonts.googleapis.com%2Fcss%3Ffamily%3DSource%2BSans%2BPro;strokeWidth=3;fontStyle=1" vertex="1" parent="1">
          <mxGeometry x="1521" y="974" width="200" height="570" as="geometry" />
        </mxCell>
        <mxCell id="cDKALuEOENlN5v6lt0b--95" value="*" style="text;html=1;strokeColor=none;fillColor=none;align=left;verticalAlign=middle;whiteSpace=wrap;rounded=0;fontSize=26;fontFamily=Source Sans Pro;fontSource=https%3A%2F%2Ffonts.googleapis.com%2Fcss%3Ffamily%3DSource%2BSans%2BPro;strokeWidth=3;fontStyle=1" vertex="1" parent="1">
          <mxGeometry x="900" y="1433" width="20" height="10" as="geometry" />
        </mxCell>
        <mxCell id="ADk5-yCTH1KVGuNaoSkB-32" style="edgeStyle=orthogonalEdgeStyle;rounded=0;orthogonalLoop=1;jettySize=auto;html=1;entryX=0;entryY=0.25;entryDx=0;entryDy=0;fontFamily=Source Sans Pro;fontSource=https%3A%2F%2Ffonts.googleapis.com%2Fcss%3Ffamily%3DSource%2BSans%2BPro;exitX=1;exitY=0.75;exitDx=0;exitDy=0;strokeWidth=3;" edge="1" parent="1" source="cDKALuEOENlN5v6lt0b--98" target="cDKALuEOENlN5v6lt0b--94">
          <mxGeometry relative="1" as="geometry">
            <mxPoint x="1495" y="900" as="sourcePoint" />
            <Array as="points">
              <mxPoint x="1314" y="890" />
              <mxPoint x="1405" y="890" />
              <mxPoint x="1405" y="1117" />
            </Array>
          </mxGeometry>
        </mxCell>
        <mxCell id="8fDcizWEanZL42y9z_Tz-19" style="edgeStyle=orthogonalEdgeStyle;rounded=0;orthogonalLoop=1;jettySize=auto;html=1;entryX=0;entryY=0.75;entryDx=0;entryDy=0;strokeWidth=3;" edge="1" parent="1" source="cDKALuEOENlN5v6lt0b--98" target="cDKALuEOENlN5v6lt0b--104">
          <mxGeometry relative="1" as="geometry">
            <Array as="points">
              <mxPoint x="1800" y="818" />
              <mxPoint x="1800" y="480" />
            </Array>
          </mxGeometry>
        </mxCell>
        <mxCell id="cDKALuEOENlN5v6lt0b--98" value="Prepare &lt;br style=&quot;font-size: 30px;&quot;&gt;rainfall &lt;br&gt;data" style="rounded=0;whiteSpace=wrap;html=1;fontSize=30;fontFamily=Source Sans Pro;fontSource=https%3A%2F%2Ffonts.googleapis.com%2Fcss%3Ffamily%3DSource%2BSans%2BPro;strokeWidth=3;fontStyle=1" vertex="1" parent="1">
          <mxGeometry x="1114" y="678" width="200" height="280" as="geometry" />
        </mxCell>
        <mxCell id="8fDcizWEanZL42y9z_Tz-36" style="edgeStyle=orthogonalEdgeStyle;rounded=0;orthogonalLoop=1;jettySize=auto;html=1;entryX=0;entryY=0.25;entryDx=0;entryDy=0;strokeWidth=3;" edge="1" parent="1" source="cDKALuEOENlN5v6lt0b--104" target="ADk5-yCTH1KVGuNaoSkB-14">
          <mxGeometry relative="1" as="geometry" />
        </mxCell>
        <mxCell id="cDKALuEOENlN5v6lt0b--104" value="HIPIMS" style="rounded=0;whiteSpace=wrap;html=1;fontSize=30;fontFamily=Source Sans Pro;fontSource=https%3A%2F%2Ffonts.googleapis.com%2Fcss%3Ffamily%3DSource%2BSans%2BPro;strokeWidth=3;fontStyle=1" vertex="1" parent="1">
          <mxGeometry x="1868" y="127" width="200" height="471" as="geometry" />
        </mxCell>
        <mxCell id="cDKALuEOENlN5v6lt0b--120" value="Data &lt;br&gt;extraction" style="text;html=1;strokeColor=none;fillColor=none;align=center;verticalAlign=middle;whiteSpace=wrap;rounded=0;fontSize=36;fontFamily=Source Sans Pro;fontSource=https%3A%2F%2Ffonts.googleapis.com%2Fcss%3Ffamily%3DSource%2BSans%2BPro;fontStyle=1;strokeWidth=3;" vertex="1" parent="1">
          <mxGeometry x="335" y="-90" width="300" height="100" as="geometry" />
        </mxCell>
        <mxCell id="8fDcizWEanZL42y9z_Tz-33" style="edgeStyle=orthogonalEdgeStyle;rounded=0;orthogonalLoop=1;jettySize=auto;html=1;entryX=0;entryY=0.5;entryDx=0;entryDy=0;strokeWidth=3;" edge="1" parent="1" source="cDKALuEOENlN5v6lt0b--121" target="cDKALuEOENlN5v6lt0b--98">
          <mxGeometry relative="1" as="geometry" />
        </mxCell>
        <mxCell id="cDKALuEOENlN5v6lt0b--121" value="Quality control (INTENSE)" style="rounded=0;whiteSpace=wrap;html=1;fontSize=20;fontFamily=Source Sans Pro;fontSource=https%3A%2F%2Ffonts.googleapis.com%2Fcss%3Ffamily%3DSource%2BSans%2BPro;strokeWidth=3;fontStyle=1" vertex="1" parent="1">
          <mxGeometry x="685" y="758" width="148" height="120" as="geometry" />
        </mxCell>
        <mxCell id="cDKALuEOENlN5v6lt0b--125" value="Quality control" style="text;html=1;strokeColor=none;fillColor=none;align=center;verticalAlign=middle;whiteSpace=wrap;rounded=0;fontSize=36;fontFamily=Source Sans Pro;fontSource=https%3A%2F%2Ffonts.googleapis.com%2Fcss%3Ffamily%3DSource%2BSans%2BPro;fontStyle=1;strokeWidth=3;" vertex="1" parent="1">
          <mxGeometry x="660" y="-90" width="200" height="100" as="geometry" />
        </mxCell>
        <mxCell id="cDKALuEOENlN5v6lt0b--126" value="Hidden data extraction &lt;br&gt;generation, model data preparation" style="text;html=1;strokeColor=none;fillColor=none;align=center;verticalAlign=middle;whiteSpace=wrap;rounded=0;fontSize=36;fontFamily=Source Sans Pro;fontSource=https%3A%2F%2Ffonts.googleapis.com%2Fcss%3Ffamily%3DSource%2BSans%2BPro;fontStyle=1;strokeWidth=3;" vertex="1" parent="1">
          <mxGeometry x="880" y="-90" width="570" height="110" as="geometry" />
        </mxCell>
        <mxCell id="cDKALuEOENlN5v6lt0b--128" value="Hydrological &lt;br&gt;modelling" style="text;html=1;strokeColor=none;fillColor=none;align=center;verticalAlign=middle;whiteSpace=wrap;rounded=0;fontSize=36;fontFamily=Source Sans Pro;fontSource=https%3A%2F%2Ffonts.googleapis.com%2Fcss%3Ffamily%3DSource%2BSans%2BPro;fontStyle=1;strokeWidth=3;" vertex="1" parent="1">
          <mxGeometry x="1473" y="-90" width="300" height="100" as="geometry" />
        </mxCell>
        <mxCell id="cDKALuEOENlN5v6lt0b--129" value="Hydrodynamic modelling" style="text;html=1;strokeColor=none;fillColor=none;align=center;verticalAlign=middle;whiteSpace=wrap;rounded=0;fontSize=36;fontFamily=Source Sans Pro;fontSource=https%3A%2F%2Ffonts.googleapis.com%2Fcss%3Ffamily%3DSource%2BSans%2BPro;fontStyle=1;strokeWidth=3;" vertex="1" parent="1">
          <mxGeometry x="1794" y="-90" width="300" height="100" as="geometry" />
        </mxCell>
        <mxCell id="cDKALuEOENlN5v6lt0b--136" value="Visualisation" style="text;html=1;strokeColor=none;fillColor=none;align=center;verticalAlign=middle;whiteSpace=wrap;rounded=0;fontSize=36;fontFamily=Source Sans Pro;fontSource=https%3A%2F%2Ffonts.googleapis.com%2Fcss%3Ffamily%3DSource%2BSans%2BPro;fontStyle=1;strokeWidth=3;" vertex="1" parent="1">
          <mxGeometry x="2150" y="-90" width="360" height="90" as="geometry" />
        </mxCell>
        <mxCell id="cDKALuEOENlN5v6lt0b--137" value="Visualisations&lt;br style=&quot;font-size: 30px;&quot;&gt;(external)" style="rounded=0;whiteSpace=wrap;html=1;fontSize=30;fontFamily=Source Sans Pro;fontSource=https%3A%2F%2Ffonts.googleapis.com%2Fcss%3Ffamily%3DSource%2BSans%2BPro;strokeWidth=3;" vertex="1" parent="1">
          <mxGeometry x="2217" y="1393.75" width="220" height="160" as="geometry" />
        </mxCell>
        <mxCell id="8fDcizWEanZL42y9z_Tz-10" style="edgeStyle=orthogonalEdgeStyle;rounded=0;orthogonalLoop=1;jettySize=auto;html=1;strokeWidth=3;" edge="1" parent="1" source="cDKALuEOENlN5v6lt0b--142" target="8fDcizWEanZL42y9z_Tz-8">
          <mxGeometry relative="1" as="geometry" />
        </mxCell>
        <mxCell id="cDKALuEOENlN5v6lt0b--142" value="Machine learning blockage identification" style="rounded=0;whiteSpace=wrap;html=1;fontSize=20;fontFamily=Source Sans Pro;fontSource=https%3A%2F%2Ffonts.googleapis.com%2Fcss%3Ffamily%3DSource%2BSans%2BPro;strokeWidth=3;" vertex="1" parent="1">
          <mxGeometry x="897" y="39" width="221" height="79" as="geometry" />
        </mxCell>
        <mxCell id="cDKALuEOENlN5v6lt0b--164" style="edgeStyle=orthogonalEdgeStyle;rounded=0;orthogonalLoop=1;jettySize=auto;html=1;entryX=0;entryY=0.5;entryDx=0;entryDy=0;fontFamily=Source Sans Pro;fontSource=https%3A%2F%2Ffonts.googleapis.com%2Fcss%3Ffamily%3DSource%2BSans%2BPro;strokeWidth=3;" edge="1" parent="1" source="cDKALuEOENlN5v6lt0b--143" target="cDKALuEOENlN5v6lt0b--142">
          <mxGeometry relative="1" as="geometry" />
        </mxCell>
        <mxCell id="cDKALuEOENlN5v6lt0b--143" value="Data scraping/API" style="rounded=0;whiteSpace=wrap;html=1;fontSize=20;fontFamily=Source Sans Pro;fontSource=https%3A%2F%2Ffonts.googleapis.com%2Fcss%3Ffamily%3DSource%2BSans%2BPro;strokeWidth=3;" vertex="1" parent="1">
          <mxGeometry x="376" y="58" width="229" height="40" as="geometry" />
        </mxCell>
        <mxCell id="cDKALuEOENlN5v6lt0b--163" style="edgeStyle=orthogonalEdgeStyle;rounded=0;orthogonalLoop=1;jettySize=auto;html=1;entryX=0;entryY=0.25;entryDx=0;entryDy=0;fontFamily=Source Sans Pro;fontSource=https%3A%2F%2Ffonts.googleapis.com%2Fcss%3Ffamily%3DSource%2BSans%2BPro;strokeWidth=3;" edge="1" parent="1" source="cDKALuEOENlN5v6lt0b--144" target="ADk5-yCTH1KVGuNaoSkB-2">
          <mxGeometry relative="1" as="geometry">
            <mxPoint x="822" y="1355" as="targetPoint" />
          </mxGeometry>
        </mxCell>
        <mxCell id="cDKALuEOENlN5v6lt0b--144" value="read_soil.py" style="rounded=0;whiteSpace=wrap;html=1;fontSize=20;fontFamily=Source Sans Pro;fontSource=https%3A%2F%2Ffonts.googleapis.com%2Fcss%3Ffamily%3DSource%2BSans%2BPro;strokeWidth=3;" vertex="1" parent="1">
          <mxGeometry x="373" y="1335" width="232" height="40" as="geometry" />
        </mxCell>
        <mxCell id="ADk5-yCTH1KVGuNaoSkB-3" style="edgeStyle=orthogonalEdgeStyle;rounded=0;orthogonalLoop=1;jettySize=auto;html=1;entryX=0;entryY=0.75;entryDx=0;entryDy=0;fontFamily=Source Sans Pro;fontSource=https%3A%2F%2Ffonts.googleapis.com%2Fcss%3Ffamily%3DSource%2BSans%2BPro;strokeWidth=3;" edge="1" parent="1" source="cDKALuEOENlN5v6lt0b--145" target="ADk5-yCTH1KVGuNaoSkB-2">
          <mxGeometry relative="1" as="geometry" />
        </mxCell>
        <mxCell id="cDKALuEOENlN5v6lt0b--145" value="read_temp.py" style="rounded=0;whiteSpace=wrap;html=1;fontSize=20;fontFamily=Source Sans Pro;fontSource=https%3A%2F%2Ffonts.googleapis.com%2Fcss%3Ffamily%3DSource%2BSans%2BPro;strokeWidth=3;" vertex="1" parent="1">
          <mxGeometry x="372" y="1428" width="233" height="40" as="geometry" />
        </mxCell>
        <mxCell id="8fDcizWEanZL42y9z_Tz-11" style="edgeStyle=orthogonalEdgeStyle;rounded=0;orthogonalLoop=1;jettySize=auto;html=1;entryX=0;entryY=0.5;entryDx=0;entryDy=0;strokeWidth=3;" edge="1" parent="1" source="cDKALuEOENlN5v6lt0b--154" target="8fDcizWEanZL42y9z_Tz-9">
          <mxGeometry relative="1" as="geometry" />
        </mxCell>
        <mxCell id="cDKALuEOENlN5v6lt0b--154" value="Woody debris identification" style="rounded=0;whiteSpace=wrap;html=1;fontSize=20;fontFamily=Source Sans Pro;fontSource=https%3A%2F%2Ffonts.googleapis.com%2Fcss%3Ffamily%3DSource%2BSans%2BPro;strokeWidth=3;" vertex="1" parent="1">
          <mxGeometry x="894.5" y="177" width="221" height="70" as="geometry" />
        </mxCell>
        <mxCell id="ADk5-yCTH1KVGuNaoSkB-28" style="edgeStyle=orthogonalEdgeStyle;rounded=0;orthogonalLoop=1;jettySize=auto;html=1;entryX=0;entryY=0.5;entryDx=0;entryDy=0;fontFamily=Source Sans Pro;fontSource=https%3A%2F%2Ffonts.googleapis.com%2Fcss%3Ffamily%3DSource%2BSans%2BPro;strokeWidth=3;" edge="1" parent="1" source="cDKALuEOENlN5v6lt0b--157" target="ADk5-yCTH1KVGuNaoSkB-26">
          <mxGeometry relative="1" as="geometry" />
        </mxCell>
        <mxCell id="cDKALuEOENlN5v6lt0b--157" value="Lidar" style="text;html=1;strokeColor=none;fillColor=none;align=left;verticalAlign=middle;whiteSpace=wrap;rounded=0;fontSize=20;fontFamily=Source Sans Pro;fontSource=https%3A%2F%2Ffonts.googleapis.com%2Fcss%3Ffamily%3DSource%2BSans%2BPro;strokeWidth=3;fontStyle=1" vertex="1" parent="1">
          <mxGeometry x="84.5" y="246" width="60" height="30" as="geometry" />
        </mxCell>
        <mxCell id="cDKALuEOENlN5v6lt0b--158" value="" style="shape=cylinder3;whiteSpace=wrap;html=1;boundedLbl=1;backgroundOutline=1;size=6.75;fontSize=15;fontFamily=Source Sans Pro;fontSource=https%3A%2F%2Ffonts.googleapis.com%2Fcss%3Ffamily%3DSource%2BSans%2BPro;strokeWidth=3;" vertex="1" parent="1">
          <mxGeometry x="43.5" y="249" width="30" height="30" as="geometry" />
        </mxCell>
        <mxCell id="cDKALuEOENlN5v6lt0b--159" value="Point cloud data" style="text;html=1;strokeColor=none;fillColor=none;align=left;verticalAlign=middle;whiteSpace=wrap;rounded=0;fontSize=16;fontFamily=Source Sans Pro;fontSource=https%3A%2F%2Ffonts.googleapis.com%2Fcss%3Ffamily%3DSource%2BSans%2BPro;strokeWidth=3;" vertex="1" parent="1">
          <mxGeometry x="94.5" y="276" width="160" height="21" as="geometry" />
        </mxCell>
        <mxCell id="ADk5-yCTH1KVGuNaoSkB-8" style="edgeStyle=orthogonalEdgeStyle;rounded=0;orthogonalLoop=1;jettySize=auto;html=1;entryX=0;entryY=0.75;entryDx=0;entryDy=0;fontFamily=Source Sans Pro;fontSource=https%3A%2F%2Ffonts.googleapis.com%2Fcss%3Ffamily%3DSource%2BSans%2BPro;strokeWidth=3;" edge="1" parent="1" source="ADk5-yCTH1KVGuNaoSkB-2" target="cDKALuEOENlN5v6lt0b--94">
          <mxGeometry relative="1" as="geometry" />
        </mxCell>
        <mxCell id="ADk5-yCTH1KVGuNaoSkB-2" value="Data assimilation" style="rounded=0;whiteSpace=wrap;html=1;fontSize=20;fontFamily=Source Sans Pro;fontSource=https%3A%2F%2Ffonts.googleapis.com%2Fcss%3Ffamily%3DSource%2BSans%2BPro;strokeWidth=3;" vertex="1" parent="1">
          <mxGeometry x="897" y="1383" width="200" height="38" as="geometry" />
        </mxCell>
        <mxCell id="57qSE1wlY5NEzLHZfADG-3" style="edgeStyle=orthogonalEdgeStyle;rounded=0;orthogonalLoop=1;jettySize=auto;html=1;entryX=0.5;entryY=0;entryDx=0;entryDy=0;fontFamily=Source Sans Pro;fontSource=https%3A%2F%2Ffonts.googleapis.com%2Fcss%3Ffamily%3DSource%2BSans%2BPro;strokeWidth=3;" edge="1" parent="1" source="ADk5-yCTH1KVGuNaoSkB-14" target="ADk5-yCTH1KVGuNaoSkB-16">
          <mxGeometry relative="1" as="geometry" />
        </mxCell>
        <mxCell id="ADk5-yCTH1KVGuNaoSkB-14" value="Prepare &lt;br style=&quot;font-size: 30px;&quot;&gt;visualisation" style="rounded=0;whiteSpace=wrap;html=1;fontSize=30;fontFamily=Source Sans Pro;fontSource=https%3A%2F%2Ffonts.googleapis.com%2Fcss%3Ffamily%3DSource%2BSans%2BPro;strokeWidth=3;fontStyle=1" vertex="1" parent="1">
          <mxGeometry x="2227.5" y="105" width="200" height="1030" as="geometry" />
        </mxCell>
        <mxCell id="ADk5-yCTH1KVGuNaoSkB-15" value="" style="shape=cylinder3;whiteSpace=wrap;html=1;boundedLbl=1;backgroundOutline=1;size=6.75;fontSize=15;fontFamily=Source Sans Pro;fontSource=https%3A%2F%2Ffonts.googleapis.com%2Fcss%3Ffamily%3DSource%2BSans%2BPro;strokeWidth=3;" vertex="1" parent="1">
          <mxGeometry x="2172.5" y="1247.5" width="30" height="30" as="geometry" />
        </mxCell>
        <mxCell id="57qSE1wlY5NEzLHZfADG-6" style="edgeStyle=orthogonalEdgeStyle;rounded=0;orthogonalLoop=1;jettySize=auto;html=1;entryX=0.5;entryY=0;entryDx=0;entryDy=0;fontFamily=Source Sans Pro;fontSource=https%3A%2F%2Ffonts.googleapis.com%2Fcss%3Ffamily%3DSource%2BSans%2BPro;strokeWidth=3;startArrow=classic;startFill=1;exitX=0.376;exitY=1.139;exitDx=0;exitDy=0;exitPerimeter=0;" edge="1" parent="1" source="ADk5-yCTH1KVGuNaoSkB-17" target="cDKALuEOENlN5v6lt0b--137">
          <mxGeometry relative="1" as="geometry" />
        </mxCell>
        <mxCell id="ADk5-yCTH1KVGuNaoSkB-16" value="Visualisation database" style="text;html=1;strokeColor=none;fillColor=none;align=left;verticalAlign=middle;whiteSpace=wrap;rounded=0;fontSize=22;fontFamily=Source Sans Pro;fontSource=https%3A%2F%2Ffonts.googleapis.com%2Fcss%3Ffamily%3DSource%2BSans%2BPro;strokeWidth=3;fontStyle=1" vertex="1" parent="1">
          <mxGeometry x="2222.5" y="1244.5" width="209.5" height="35.5" as="geometry" />
        </mxCell>
        <mxCell id="ADk5-yCTH1KVGuNaoSkB-17" value="External database" style="text;html=1;strokeColor=none;fillColor=none;align=left;verticalAlign=middle;whiteSpace=wrap;rounded=0;fontSize=16;fontFamily=Source Sans Pro;fontSource=https%3A%2F%2Ffonts.googleapis.com%2Fcss%3Ffamily%3DSource%2BSans%2BPro;strokeWidth=3;" vertex="1" parent="1">
          <mxGeometry x="2237.5" y="1274.5" width="240" height="30" as="geometry" />
        </mxCell>
        <mxCell id="ADk5-yCTH1KVGuNaoSkB-21" value="Additional data" style="text;html=1;strokeColor=none;fillColor=none;align=left;verticalAlign=middle;whiteSpace=wrap;rounded=0;fontSize=22;fontFamily=Source Sans Pro;fontSource=https%3A%2F%2Ffonts.googleapis.com%2Fcss%3Ffamily%3DSource%2BSans%2BPro;strokeWidth=3;fontStyle=1" vertex="1" parent="1">
          <mxGeometry x="28.25" y="1184" width="273.5" height="30" as="geometry" />
        </mxCell>
        <mxCell id="ADk5-yCTH1KVGuNaoSkB-29" style="edgeStyle=orthogonalEdgeStyle;rounded=0;orthogonalLoop=1;jettySize=auto;html=1;entryX=0;entryY=0.75;entryDx=0;entryDy=0;fontFamily=Source Sans Pro;fontSource=https%3A%2F%2Ffonts.googleapis.com%2Fcss%3Ffamily%3DSource%2BSans%2BPro;strokeWidth=3;" edge="1" parent="1" source="ADk5-yCTH1KVGuNaoSkB-26" target="cDKALuEOENlN5v6lt0b--154">
          <mxGeometry relative="1" as="geometry" />
        </mxCell>
        <mxCell id="ADk5-yCTH1KVGuNaoSkB-26" value="Prepare and upload" style="rounded=0;whiteSpace=wrap;html=1;fontSize=20;fontFamily=Source Sans Pro;fontSource=https%3A%2F%2Ffonts.googleapis.com%2Fcss%3Ffamily%3DSource%2BSans%2BPro;strokeWidth=3;" vertex="1" parent="1">
          <mxGeometry x="375.5" y="241" width="229" height="39" as="geometry" />
        </mxCell>
        <mxCell id="ADk5-yCTH1KVGuNaoSkB-36" style="edgeStyle=orthogonalEdgeStyle;rounded=0;orthogonalLoop=1;jettySize=auto;html=1;fontSize=15;fontFamily=Source Sans Pro;fontSource=https%3A%2F%2Ffonts.googleapis.com%2Fcss%3Ffamily%3DSource%2BSans%2BPro;strokeWidth=3;" edge="1" parent="1" source="ADk5-yCTH1KVGuNaoSkB-37" target="ADk5-yCTH1KVGuNaoSkB-41">
          <mxGeometry relative="1" as="geometry" />
        </mxCell>
        <mxCell id="ADk5-yCTH1KVGuNaoSkB-37" value="Vehicle database" style="text;html=1;strokeColor=none;fillColor=none;align=left;verticalAlign=middle;whiteSpace=wrap;rounded=0;fontSize=20;fontFamily=Source Sans Pro;fontSource=https%3A%2F%2Ffonts.googleapis.com%2Fcss%3Ffamily%3DSource%2BSans%2BPro;strokeWidth=3;fontStyle=1" vertex="1" parent="1">
          <mxGeometry x="85" y="329" width="160" height="30" as="geometry" />
        </mxCell>
        <mxCell id="ADk5-yCTH1KVGuNaoSkB-38" value="" style="shape=cylinder3;whiteSpace=wrap;html=1;boundedLbl=1;backgroundOutline=1;size=6.75;fontSize=15;fontFamily=Source Sans Pro;fontSource=https%3A%2F%2Ffonts.googleapis.com%2Fcss%3Ffamily%3DSource%2BSans%2BPro;strokeWidth=3;" vertex="1" parent="1">
          <mxGeometry x="44" y="332" width="30" height="30" as="geometry" />
        </mxCell>
        <mxCell id="ADk5-yCTH1KVGuNaoSkB-39" value="Car dimensions (height, length, weight) database" style="text;html=1;strokeColor=none;fillColor=none;align=left;verticalAlign=middle;whiteSpace=wrap;rounded=0;fontSize=16;fontFamily=Source Sans Pro;fontSource=https%3A%2F%2Ffonts.googleapis.com%2Fcss%3Ffamily%3DSource%2BSans%2BPro;strokeWidth=3;" vertex="1" parent="1">
          <mxGeometry x="95" y="359" width="180" height="39" as="geometry" />
        </mxCell>
        <mxCell id="ADk5-yCTH1KVGuNaoSkB-50" style="edgeStyle=orthogonalEdgeStyle;rounded=0;orthogonalLoop=1;jettySize=auto;html=1;fontFamily=Source Sans Pro;fontSource=https%3A%2F%2Ffonts.googleapis.com%2Fcss%3Ffamily%3DSource%2BSans%2BPro;entryX=0;entryY=0.25;entryDx=0;entryDy=0;strokeWidth=3;" edge="1" parent="1" source="ADk5-yCTH1KVGuNaoSkB-41" target="cDKALuEOENlN5v6lt0b--69">
          <mxGeometry relative="1" as="geometry" />
        </mxCell>
        <mxCell id="ADk5-yCTH1KVGuNaoSkB-41" value="Prepare and upload" style="rounded=0;whiteSpace=wrap;html=1;fontSize=20;fontFamily=Source Sans Pro;fontSource=https%3A%2F%2Ffonts.googleapis.com%2Fcss%3Ffamily%3DSource%2BSans%2BPro;strokeWidth=3;" vertex="1" parent="1">
          <mxGeometry x="375" y="325" width="230" height="38" as="geometry" />
        </mxCell>
        <mxCell id="ADk5-yCTH1KVGuNaoSkB-55" style="edgeStyle=orthogonalEdgeStyle;rounded=0;orthogonalLoop=1;jettySize=auto;html=1;entryX=0;entryY=0.5;entryDx=0;entryDy=0;fontSize=15;fontFamily=Source Sans Pro;fontSource=https%3A%2F%2Ffonts.googleapis.com%2Fcss%3Ffamily%3DSource%2BSans%2BPro;strokeWidth=3;" edge="1" parent="1" source="ADk5-yCTH1KVGuNaoSkB-56" target="ADk5-yCTH1KVGuNaoSkB-61">
          <mxGeometry relative="1" as="geometry" />
        </mxCell>
        <mxCell id="ADk5-yCTH1KVGuNaoSkB-56" value="SHETRAN input files" style="text;html=1;strokeColor=none;fillColor=none;align=left;verticalAlign=middle;whiteSpace=wrap;rounded=0;fontSize=20;fontFamily=Source Sans Pro;fontSource=https%3A%2F%2Ffonts.googleapis.com%2Fcss%3Ffamily%3DSource%2BSans%2BPro;strokeWidth=3;fontStyle=1" vertex="1" parent="1">
          <mxGeometry x="83.75" y="1244" width="188" height="30" as="geometry" />
        </mxCell>
        <mxCell id="ADk5-yCTH1KVGuNaoSkB-57" value="" style="shape=cylinder3;whiteSpace=wrap;html=1;boundedLbl=1;backgroundOutline=1;size=6.75;fontSize=15;fontFamily=Source Sans Pro;fontSource=https%3A%2F%2Ffonts.googleapis.com%2Fcss%3Ffamily%3DSource%2BSans%2BPro;strokeWidth=3;" vertex="1" parent="1">
          <mxGeometry x="43.75" y="1244" width="30" height="30" as="geometry" />
        </mxCell>
        <mxCell id="ADk5-yCTH1KVGuNaoSkB-59" style="edgeStyle=orthogonalEdgeStyle;rounded=0;orthogonalLoop=1;jettySize=auto;html=1;entryX=0;entryY=0.5;entryDx=0;entryDy=0;fontFamily=Source Sans Pro;fontSource=https%3A%2F%2Ffonts.googleapis.com%2Fcss%3Ffamily%3DSource%2BSans%2BPro;strokeWidth=3;" edge="1" parent="1" source="ADk5-yCTH1KVGuNaoSkB-61" target="ADk5-yCTH1KVGuNaoSkB-65">
          <mxGeometry relative="1" as="geometry" />
        </mxCell>
        <mxCell id="ADk5-yCTH1KVGuNaoSkB-61" value="Prepare and upload" style="rounded=0;whiteSpace=wrap;html=1;fontSize=20;fontFamily=Source Sans Pro;fontSource=https%3A%2F%2Ffonts.googleapis.com%2Fcss%3Ffamily%3DSource%2BSans%2BPro;strokeWidth=3;" vertex="1" parent="1">
          <mxGeometry x="373" y="1240.5" width="232" height="37" as="geometry" />
        </mxCell>
        <mxCell id="8fDcizWEanZL42y9z_Tz-3" style="edgeStyle=orthogonalEdgeStyle;rounded=0;orthogonalLoop=1;jettySize=auto;html=1;entryX=0;entryY=0.5;entryDx=0;entryDy=0;strokeWidth=3;" edge="1" parent="1" source="ADk5-yCTH1KVGuNaoSkB-65" target="cDKALuEOENlN5v6lt0b--94">
          <mxGeometry relative="1" as="geometry" />
        </mxCell>
        <mxCell id="ADk5-yCTH1KVGuNaoSkB-65" value="Prepare &lt;br&gt;SHETRAN" style="rounded=0;whiteSpace=wrap;html=1;fontSize=20;fontFamily=Source Sans Pro;fontSource=https%3A%2F%2Ffonts.googleapis.com%2Fcss%3Ffamily%3DSource%2BSans%2BPro;strokeWidth=3;" vertex="1" parent="1">
          <mxGeometry x="1073" y="1218" width="200" height="80.5" as="geometry" />
        </mxCell>
        <mxCell id="57qSE1wlY5NEzLHZfADG-5" value="" style="rounded=0;whiteSpace=wrap;html=1;fillColor=none;fontFamily=Source Sans Pro;fontSource=https%3A%2F%2Ffonts.googleapis.com%2Fcss%3Ffamily%3DSource%2BSans%2BPro;strokeWidth=3;fontStyle=1" vertex="1" parent="1">
          <mxGeometry x="2231" y="1410" width="193" height="130" as="geometry" />
        </mxCell>
        <mxCell id="ADk5-yCTH1KVGuNaoSkB-73" value="Datasets" style="text;html=1;strokeColor=none;fillColor=none;align=center;verticalAlign=middle;whiteSpace=wrap;rounded=0;fontSize=36;fontFamily=Source Sans Pro;fontSource=https%3A%2F%2Ffonts.googleapis.com%2Fcss%3Ffamily%3DSource%2BSans%2BPro;fontStyle=1;strokeWidth=3;" vertex="1" parent="1">
          <mxGeometry x="5" y="-90" width="310" height="100" as="geometry" />
        </mxCell>
        <mxCell id="57qSE1wlY5NEzLHZfADG-10" value="Urban Observatory, COSMOS network" style="text;html=1;strokeColor=none;fillColor=none;align=left;verticalAlign=middle;whiteSpace=wrap;rounded=0;fontSize=16;fontFamily=Source Sans Pro;fontSource=https%3A%2F%2Ffonts.googleapis.com%2Fcss%3Ffamily%3DSource%2BSans%2BPro;strokeWidth=3;" vertex="1" parent="1">
          <mxGeometry x="91.25" y="1370" width="190.5" height="30" as="geometry" />
        </mxCell>
        <mxCell id="57qSE1wlY5NEzLHZfADG-11" value="Urban Observatory, Environment Agency" style="text;html=1;strokeColor=none;fillColor=none;align=left;verticalAlign=middle;whiteSpace=wrap;rounded=0;fontSize=16;fontFamily=Source Sans Pro;fontSource=https%3A%2F%2Ffonts.googleapis.com%2Fcss%3Ffamily%3DSource%2BSans%2BPro;strokeWidth=3;" vertex="1" parent="1">
          <mxGeometry x="91.25" y="1463" width="180.5" height="40" as="geometry" />
        </mxCell>
        <mxCell id="57qSE1wlY5NEzLHZfADG-15" value="read_trash.py" style="text;html=1;strokeColor=none;fillColor=none;align=left;verticalAlign=middle;whiteSpace=wrap;rounded=0;fontSize=16;fontFamily=Source Sans Pro;fontSource=https%3A%2F%2Ffonts.googleapis.com%2Fcss%3Ffamily%3DSource%2BSans%2BPro;strokeWidth=3;" vertex="1" parent="1">
          <mxGeometry x="385" y="98" width="110" height="30" as="geometry" />
        </mxCell>
        <mxCell id="57qSE1wlY5NEzLHZfADG-16" value="read_wind.py" style="text;html=1;strokeColor=none;fillColor=none;align=left;verticalAlign=middle;whiteSpace=wrap;rounded=0;fontSize=16;fontFamily=Source Sans Pro;fontSource=https%3A%2F%2Ffonts.googleapis.com%2Fcss%3Ffamily%3DSource%2BSans%2BPro;strokeWidth=3;" vertex="1" parent="1">
          <mxGeometry x="385" y="179" width="110" height="30" as="geometry" />
        </mxCell>
        <mxCell id="57qSE1wlY5NEzLHZfADG-17" value="read_met_office.py" style="text;html=1;strokeColor=none;fillColor=none;align=left;verticalAlign=middle;whiteSpace=wrap;rounded=0;fontSize=16;fontFamily=Source Sans Pro;fontSource=https%3A%2F%2Ffonts.googleapis.com%2Fcss%3Ffamily%3DSource%2BSans%2BPro;strokeWidth=3;" vertex="1" parent="1">
          <mxGeometry x="385" y="598" width="110" height="30" as="geometry" />
        </mxCell>
        <mxCell id="57qSE1wlY5NEzLHZfADG-18" value="read_ea.py" style="text;html=1;strokeColor=none;fillColor=none;align=left;verticalAlign=middle;whiteSpace=wrap;rounded=0;fontSize=16;fontFamily=Source Sans Pro;fontSource=https%3A%2F%2Ffonts.googleapis.com%2Fcss%3Ffamily%3DSource%2BSans%2BPro;strokeWidth=3;" vertex="1" parent="1">
          <mxGeometry x="385" y="696" width="110" height="30" as="geometry" />
        </mxCell>
        <mxCell id="57qSE1wlY5NEzLHZfADG-19" value="read_cs.py" style="text;html=1;strokeColor=none;fillColor=none;align=left;verticalAlign=middle;whiteSpace=wrap;rounded=0;fontSize=16;fontFamily=Source Sans Pro;fontSource=https%3A%2F%2Ffonts.googleapis.com%2Fcss%3Ffamily%3DSource%2BSans%2BPro;strokeWidth=3;" vertex="1" parent="1">
          <mxGeometry x="385" y="978.75" width="110" height="30" as="geometry" />
        </mxCell>
        <mxCell id="57qSE1wlY5NEzLHZfADG-20" value="read_soil.py" style="text;html=1;strokeColor=none;fillColor=none;align=left;verticalAlign=middle;whiteSpace=wrap;rounded=0;fontSize=16;fontFamily=Source Sans Pro;fontSource=https%3A%2F%2Ffonts.googleapis.com%2Fcss%3Ffamily%3DSource%2BSans%2BPro;strokeWidth=3;" vertex="1" parent="1">
          <mxGeometry x="385" y="1375" width="110" height="30" as="geometry" />
        </mxCell>
        <mxCell id="57qSE1wlY5NEzLHZfADG-21" value="read_temp.py" style="text;html=1;strokeColor=none;fillColor=none;align=left;verticalAlign=middle;whiteSpace=wrap;rounded=0;fontSize=16;fontFamily=Source Sans Pro;fontSource=https%3A%2F%2Ffonts.googleapis.com%2Fcss%3Ffamily%3DSource%2BSans%2BPro;strokeWidth=3;" vertex="1" parent="1">
          <mxGeometry x="385" y="1467" width="110" height="30" as="geometry" />
        </mxCell>
        <mxCell id="57qSE1wlY5NEzLHZfADG-30" value="intense_qc.py" style="text;html=1;strokeColor=none;fillColor=none;align=left;verticalAlign=middle;whiteSpace=wrap;rounded=0;fontSize=16;fontFamily=Source Sans Pro;fontSource=https%3A%2F%2Ffonts.googleapis.com%2Fcss%3Ffamily%3DSource%2BSans%2BPro;strokeWidth=3;" vertex="1" parent="1">
          <mxGeometry x="693" y="877.75" width="110" height="30" as="geometry" />
        </mxCell>
        <mxCell id="57qSE1wlY5NEzLHZfADG-36" value="" style="edgeStyle=orthogonalEdgeStyle;rounded=0;orthogonalLoop=1;jettySize=auto;html=1;entryX=0;entryY=0.75;entryDx=0;entryDy=0;fontSize=15;fontFamily=Source Sans Pro;fontSource=https%3A%2F%2Ffonts.googleapis.com%2Fcss%3Ffamily%3DSource%2BSans%2BPro;exitX=1;exitY=0.5;exitDx=0;exitDy=0;strokeWidth=3;" edge="1" parent="1" source="cDKALuEOENlN5v6lt0b--94" target="ADk5-yCTH1KVGuNaoSkB-14">
          <mxGeometry relative="1" as="geometry">
            <mxPoint x="1638" y="944" as="sourcePoint" />
            <mxPoint x="1758" y="508" as="targetPoint" />
            <Array as="points">
              <mxPoint x="2110" y="1259" />
              <mxPoint x="2110" y="877" />
            </Array>
          </mxGeometry>
        </mxCell>
        <mxCell id="8fDcizWEanZL42y9z_Tz-14" style="edgeStyle=orthogonalEdgeStyle;rounded=0;orthogonalLoop=1;jettySize=auto;html=1;entryX=0.25;entryY=1;entryDx=0;entryDy=0;strokeWidth=3;" edge="1" parent="1" source="57qSE1wlY5NEzLHZfADG-35" target="cDKALuEOENlN5v6lt0b--104">
          <mxGeometry relative="1" as="geometry" />
        </mxCell>
        <mxCell id="57qSE1wlY5NEzLHZfADG-35" value="Data conversion" style="rounded=0;whiteSpace=wrap;html=1;fontSize=20;fontFamily=Source Sans Pro;fontSource=https%3A%2F%2Ffonts.googleapis.com%2Fcss%3Ffamily%3DSource%2BSans%2BPro;strokeWidth=3;" vertex="1" parent="1">
          <mxGeometry x="1819" y="1096.5" width="200" height="40" as="geometry" />
        </mxCell>
        <mxCell id="8fDcizWEanZL42y9z_Tz-17" style="edgeStyle=orthogonalEdgeStyle;rounded=0;orthogonalLoop=1;jettySize=auto;html=1;entryX=0.25;entryY=0;entryDx=0;entryDy=0;strokeWidth=3;" edge="1" parent="1" source="8fDcizWEanZL42y9z_Tz-8" target="cDKALuEOENlN5v6lt0b--104">
          <mxGeometry relative="1" as="geometry" />
        </mxCell>
        <mxCell id="8fDcizWEanZL42y9z_Tz-8" value="Data conversion" style="rounded=0;whiteSpace=wrap;html=1;fontSize=20;fontFamily=Source Sans Pro;fontSource=https%3A%2F%2Ffonts.googleapis.com%2Fcss%3Ffamily%3DSource%2BSans%2BPro;strokeWidth=3;" vertex="1" parent="1">
          <mxGeometry x="1234" y="58" width="200" height="40" as="geometry" />
        </mxCell>
        <mxCell id="8fDcizWEanZL42y9z_Tz-16" style="edgeStyle=orthogonalEdgeStyle;rounded=0;orthogonalLoop=1;jettySize=auto;html=1;entryX=0;entryY=0.25;entryDx=0;entryDy=0;strokeWidth=3;" edge="1" parent="1" source="8fDcizWEanZL42y9z_Tz-9" target="cDKALuEOENlN5v6lt0b--104">
          <mxGeometry relative="1" as="geometry">
            <mxPoint x="2005" y="240" as="targetPoint" />
            <Array as="points">
              <mxPoint x="1800" y="213" />
              <mxPoint x="1800" y="245" />
            </Array>
          </mxGeometry>
        </mxCell>
        <mxCell id="8fDcizWEanZL42y9z_Tz-9" value="Data conversion" style="rounded=0;whiteSpace=wrap;html=1;fontSize=20;fontFamily=Source Sans Pro;fontSource=https%3A%2F%2Ffonts.googleapis.com%2Fcss%3Ffamily%3DSource%2BSans%2BPro;strokeWidth=3;" vertex="1" parent="1">
          <mxGeometry x="1234" y="192" width="200" height="40" as="geometry" />
        </mxCell>
        <mxCell id="8fDcizWEanZL42y9z_Tz-18" style="edgeStyle=orthogonalEdgeStyle;rounded=0;orthogonalLoop=1;jettySize=auto;html=1;entryX=0;entryY=0.5;entryDx=0;entryDy=0;strokeWidth=3;" edge="1" parent="1" source="8fDcizWEanZL42y9z_Tz-12" target="cDKALuEOENlN5v6lt0b--104">
          <mxGeometry relative="1" as="geometry" />
        </mxCell>
        <mxCell id="8fDcizWEanZL42y9z_Tz-12" value="Data conversion" style="rounded=0;whiteSpace=wrap;html=1;fontSize=20;fontFamily=Source Sans Pro;fontSource=https%3A%2F%2Ffonts.googleapis.com%2Fcss%3Ffamily%3DSource%2BSans%2BPro;strokeWidth=3;" vertex="1" parent="1">
          <mxGeometry x="1509" y="343" width="200" height="40" as="geometry" />
        </mxCell>
        <mxCell id="8fDcizWEanZL42y9z_Tz-56" value="" style="endArrow=none;dashed=1;html=1;dashPattern=1 3;strokeWidth=3;rounded=0;" edge="1" parent="1">
          <mxGeometry width="50" height="50" relative="1" as="geometry">
            <mxPoint x="2124" y="78" as="sourcePoint" />
            <mxPoint x="2124" y="1448" as="targetPoint" />
          </mxGeometry>
        </mxCell>
        <mxCell id="8fDcizWEanZL42y9z_Tz-57" value="" style="endArrow=classic;html=1;rounded=0;entryX=0;entryY=0.5;entryDx=0;entryDy=0;strokeWidth=3;dashed=1;dashPattern=1 2;" edge="1" parent="1" target="ADk5-yCTH1KVGuNaoSkB-14">
          <mxGeometry width="50" height="50" relative="1" as="geometry">
            <mxPoint x="2124" y="620" as="sourcePoint" />
            <mxPoint x="1744" y="900" as="targetPoint" />
          </mxGeometry>
        </mxCell>
        <mxCell id="8fDcizWEanZL42y9z_Tz-62" value="*" style="text;html=1;strokeColor=none;fillColor=none;align=left;verticalAlign=middle;whiteSpace=wrap;rounded=0;fontSize=26;fontFamily=Source Sans Pro;fontSource=https%3A%2F%2Ffonts.googleapis.com%2Fcss%3Ffamily%3DSource%2BSans%2BPro;strokeWidth=3;fontStyle=1" vertex="1" parent="1">
          <mxGeometry x="903" y="122" width="40" height="30" as="geometry" />
        </mxCell>
        <mxCell id="8fDcizWEanZL42y9z_Tz-63" value="prepare_shetran.py" style="text;html=1;strokeColor=none;fillColor=none;align=left;verticalAlign=middle;whiteSpace=wrap;rounded=0;fontSize=16;fontFamily=Source Sans Pro;fontSource=https%3A%2F%2Ffonts.googleapis.com%2Fcss%3Ffamily%3DSource%2BSans%2BPro;strokeWidth=3;" vertex="1" parent="1">
          <mxGeometry x="1080" y="1298.5" width="110" height="30" as="geometry" />
        </mxCell>
        <mxCell id="8fDcizWEanZL42y9z_Tz-64" value="prepare_data.py" style="text;html=1;strokeColor=none;fillColor=none;align=left;verticalAlign=middle;whiteSpace=wrap;rounded=0;fontSize=16;fontFamily=Source Sans Pro;fontSource=https%3A%2F%2Ffonts.googleapis.com%2Fcss%3Ffamily%3DSource%2BSans%2BPro;strokeWidth=3;" vertex="1" parent="1">
          <mxGeometry x="1118" y="958" width="110" height="30" as="geometry" />
        </mxCell>
        <mxCell id="8fDcizWEanZL42y9z_Tz-65" value="object_detection.py" style="text;html=1;strokeColor=none;fillColor=none;align=left;verticalAlign=middle;whiteSpace=wrap;rounded=0;fontSize=16;fontFamily=Source Sans Pro;fontSource=https%3A%2F%2Ffonts.googleapis.com%2Fcss%3Ffamily%3DSource%2BSans%2BPro;strokeWidth=3;" vertex="1" parent="1">
          <mxGeometry x="905" y="494" width="155" height="30" as="geometry" />
        </mxCell>
        <mxCell id="8fDcizWEanZL42y9z_Tz-66" value="*" style="text;html=1;strokeColor=none;fillColor=none;align=left;verticalAlign=middle;whiteSpace=wrap;rounded=0;fontSize=26;fontFamily=Source Sans Pro;fontSource=https%3A%2F%2Ffonts.googleapis.com%2Fcss%3Ffamily%3DSource%2BSans%2BPro;strokeWidth=3;fontStyle=1" vertex="1" parent="1">
          <mxGeometry x="902" y="261" width="20" height="10" as="geometry" />
        </mxCell>
        <mxCell id="8fDcizWEanZL42y9z_Tz-71" value="*&amp;nbsp;&lt;span style=&quot;font-weight: normal; font-size: 20px;&quot;&gt;Future work&lt;/span&gt;" style="text;html=1;strokeColor=none;fillColor=none;align=left;verticalAlign=middle;whiteSpace=wrap;rounded=0;fontSize=20;fontFamily=Source Sans Pro;fontSource=https%3A%2F%2Ffonts.googleapis.com%2Fcss%3Ffamily%3DSource%2BSans%2BPro;strokeWidth=3;fontStyle=1" vertex="1" parent="1">
          <mxGeometry x="931" y="1530" width="310" height="40" as="geometry" />
        </mxCell>
      </root>
    </mxGraphModel>
  </diagram>
</mxfile>
